<svg viewBox="0 0 100 100" fill="none" xmlns="http://www.w3.org/2000/svg">
  <path d="M90 30 A 45 45 0 1 0 90 70" stroke="#d4af37" stroke-width="4" stroke-linecap="round"/>
  <circle cx="90" cy="30" r="4" fill="#d4af37"/>
  <circle cx="90" cy="70" r="4" fill="#d4af37"/>
  
  <path d="M 30 45 V 70 M 30 45 C 30 35, 45 35, 45 45 V 70 M 45 45 C 45 35, 60 35, 60 45 V 70" stroke="#d4af37" stroke-width="12" stroke-linecap="round" stroke-linejoin="round"/>
  
  <path d="M 35 70 C 45 70, 55 60, 65 45 L 75 35" stroke="#0f1115" stroke-width="10" stroke-linecap="round" />
  
  <path d="M 35 70 C 45 70, 55 60, 65 45 L 75 35" stroke="#d4af37" stroke-width="4" stroke-linecap="round" />
  <path d="M 55 35 H 75 V 55" stroke="#d4af37" stroke-width="4" stroke-linecap="round" stroke-linejoin="round" />
</svg>
